<?xml version="1.0" encoding="UTF-8" standalone="no"?><!-- Generator: Gravit.io --><svg xmlns="http://www.w3.org/2000/svg" xmlns:xlink="http://www.w3.org/1999/xlink" style="isolation:isolate" viewBox="0 0 64 64" width="64pt" height="64pt"><defs><clipPath id="_clipPath_QKm5wslecxieSocqmAA7K1Hz2KUfRAEJ"><rect width="64" height="64"/></clipPath></defs><g clip-path="url(#_clipPath_QKm5wslecxieSocqmAA7K1Hz2KUfRAEJ)"><clipPath id="_clipPath_CGPLuFYtOFzu7SYBcRw8fUmJnMzZRzyz"><rect x="11.094" y="11.094" width="41.813" height="41.812" transform="matrix(1,0,0,1,0,0)" fill="rgb(255,255,255)"/></clipPath><g clip-path="url(#_clipPath_CGPLuFYtOFzu7SYBcRw8fUmJnMzZRzyz)"><g><clipPath id="_clipPath_6mytInLEul8VnExvxGpJJrev3l3fOOvv"><rect x="18.791" y="18.791" width="26.419" height="26.419" transform="matrix(1,0,0,1,0,0)" fill="rgb(255,255,255)"/></clipPath><g clip-path="url(#_clipPath_6mytInLEul8VnExvxGpJJrev3l3fOOvv)"><g><g><g><path d=" M 40.173 39.596 L 23.868 39.596 C 22.919 39.596 22.134 38.811 22.134 37.862 L 22.134 26.221 C 22.134 25.271 22.919 24.487 23.868 24.487 L 40.173 24.487 C 41.123 24.487 41.907 25.271 41.907 26.221 L 41.907 37.862 C 41.907 38.811 41.123 39.596 40.173 39.596 L 40.173 39.596 Z  M 23.827 25.602 C 23.496 25.602 23.249 25.85 23.249 26.18 L 23.249 37.82 C 23.249 38.15 23.496 38.398 23.827 38.398 L 40.132 38.398 C 40.462 38.398 40.71 38.15 40.71 37.82 L 40.71 26.18 C 40.71 25.85 40.462 25.602 40.132 25.602 L 23.827 25.602 L 23.827 25.602 Z " fill="rgb(255,255,255)"/><path d=" M 34.931 31.381 C 33.651 31.381 32.661 30.349 32.661 29.11 C 32.661 27.872 33.693 26.84 34.931 26.84 C 36.169 26.84 37.201 27.872 37.201 29.11 C 37.201 30.349 36.169 31.381 34.931 31.381 L 34.931 31.381 Z  M 34.931 27.872 C 34.27 27.872 33.734 28.409 33.734 29.069 C 33.734 29.73 34.27 30.266 34.931 30.266 C 35.591 30.266 36.128 29.73 36.128 29.069 C 36.128 28.409 35.591 27.872 34.931 27.872 L 34.931 27.872 Z " fill="rgb(255,255,255)"/><path d=" M 38.027 39.389 L 28.491 30.431 L 23.042 35.467 L 22.3 34.683 L 28.491 28.945 L 38.77 38.604 L 38.027 39.389 Z " fill="rgb(255,255,255)"/><path d=" M 40.999 36.417 L 37.82 33.857 L 35.178 36.045 L 34.477 35.178 L 37.82 32.454 L 41.659 35.591 L 40.999 36.417 Z " fill="rgb(255,255,255)"/></g></g></g></g></g></g></g></svg>